<svg width="512" height="512" viewBox="0 0 42 42" fill="none" xmlns="http://www.w3.org/2000/svg">
  <rect width="42" height="42" rx="9" fill="#0C0E0C"/>
  <!-- Left reel -->
  <circle cx="10" cy="12" r="8" stroke="#C8783E" stroke-width="1.2" fill="none"/>
  <circle cx="10" cy="12" r="3" fill="#C8783E"/>
  <line x1="10" y1="9" x2="10" y2="4.5" stroke="#C8783E" stroke-width="1.2"/>
  <line x1="12.6" y1="13.5" x2="16.5" y2="15.8" stroke="#C8783E" stroke-width="1.2"/>
  <line x1="7.4" y1="13.5" x2="3.5" y2="15.8" stroke="#C8783E" stroke-width="1.2"/>
  <!-- Right reel -->
  <circle cx="32" cy="12" r="8" stroke="#C8783E" stroke-width="1.2" fill="none"/>
  <circle cx="32" cy="12" r="3" fill="#C8783E"/>
  <line x1="32" y1="9" x2="32" y2="4.5" stroke="#C8783E" stroke-width="1.2"/>
  <line x1="34.6" y1="13.5" x2="38.5" y2="15.8" stroke="#C8783E" stroke-width="1.2"/>
  <line x1="29.4" y1="13.5" x2="25.5" y2="15.8" stroke="#C8783E" stroke-width="1.2"/>
  <!-- Film strip between reels -->
  <rect x="18" y="9" width="6" height="6" fill="#C8783E" fill-opacity="0.1" stroke="#C8783E" stroke-width="0.8"/>
  <rect x="19.5" y="10.5" width="1.2" height="1.2" fill="#C8783E" fill-opacity="0.8"/>
  <rect x="19.5" y="13" width="1.2" height="1.2" fill="#C8783E" fill-opacity="0.8"/>
  <!-- Timeline bar -->
  <rect x="5" y="23" width="32" height="4" rx="2" fill="#C8783E" fill-opacity="0.55"/>
  <!-- Film strip lower -->
  <rect x="5" y="28.5" width="32" height="3" fill="#C8783E" fill-opacity="0.12" stroke="#C8783E" stroke-width="0.6"/>
  <rect x="7" y="29.2" width="1.5" height="1.5" fill="#C8783E" fill-opacity="0.7"/>
  <rect x="11" y="29.2" width="1.5" height="1.5" fill="#C8783E" fill-opacity="0.7"/>
  <rect x="15" y="29.2" width="1.5" height="1.5" fill="#C8783E" fill-opacity="0.7"/>
  <rect x="19" y="29.2" width="1.5" height="1.5" fill="#C8783E" fill-opacity="0.7"/>
  <rect x="23" y="29.2" width="1.5" height="1.5" fill="#C8783E" fill-opacity="0.7"/>
  <rect x="27" y="29.2" width="1.5" height="1.5" fill="#C8783E" fill-opacity="0.7"/>
  <rect x="31" y="29.2" width="1.5" height="1.5" fill="#C8783E" fill-opacity="0.7"/>
  <!-- Transport dots -->
  <circle cx="11" cy="35" r="2" fill="#C8783E" fill-opacity="0.7"/>
  <circle cx="21" cy="35" r="2" fill="#C8783E" fill-opacity="0.7"/>
  <circle cx="31" cy="35" r="2" fill="#C8783E" fill-opacity="0.7"/>
</svg>